<?xml version="1.0" encoding="utf-8"?>
<!-- Generator: Adobe Illustrator 16.0.4, SVG Export Plug-In . SVG Version: 6.00 Build 0)  -->
<!DOCTYPE svg PUBLIC "-//W3C//DTD SVG 1.1//EN" "http://www.w3.org/Graphics/SVG/1.1/DTD/svg11.dtd">
<svg version="1.1" id="Layer_1" xmlns="http://www.w3.org/2000/svg" xmlns:xlink="http://www.w3.org/1999/xlink" x="0px" y="0px"
	 width="792px" height="501px" viewBox="0 0 792 501" enable-background="new 0 0 792 501" xml:space="preserve">
<g>
	<g>
		<g>
			<path fill="#FFFFFF" d="M397,257v-71.52c0-0.706-0.436-1.379-0.959-1.853c-11.515-10.436-30.608-28.63-32.639-33.028
				c-0.176-0.382-0.38-0.738-0.541-1.079c-1.622-3.416-2.311-4.744-0.803-15.953c1.67-12.396,9.385-60.567,9.973-64.567h-5.063
				c-1.164,7-8.281,52.021-9.881,63.899c-1.642,12.194-0.861,14.419,1.224,18.809c0.154,0.325,0.452,0.644,0.622,1.008
				c2.934,6.359,28.068,28.83,33.068,33.87V257h-0.273H397z"/>
			<path fill="#FFFFFF" d="M404.477,257"/>
			<path fill="#FFFFFF" d="M368.938,148.514c3.318,6.344,24.301,25.125,24.301,25.125s2.502,2.006,4.117,2.006
				c3.166,0,5.219-2.006,5.219-2.006s21.303-18.625,24.303-25.125c2.121-4.596,3.25-5.5,1.5-18.5s-4.522-31.701-4.522-31.701
				l-55.423,30.482C368.432,128.795,365.639,142.211,368.938,148.514z"/>
			<polygon fill="#FFFFFF" points="396.673,257 391.727,257 391.673,257 369,257 369,262 421,262 421,257 396.727,257 			"/>
			<rect x="369" y="265" fill="#FFFFFF" width="52" height="2"/>
		</g>
		<g>
			<path fill="#FFFFFF" d="M217.285,204.482h-7.215l-39.123,144.066L117.799,246.51h-6.897L61.422,432.174h7.057l41.001-153.82
				l53.704,102.986h6.424L217.285,204.482z M163.843,374.686l-52.896-101.773l5.563-20.643l52.99,101.605L163.843,374.686z"/>
			<g>
				<polygon fill="#FFFFFF" points="618.676,204.299 569.953,381.34 575.166,381.34 623.889,204.299 				"/>
				<polygon fill="#FFFFFF" points="628.344,204.299 579.619,381.34 581.832,381.34 630.557,204.299 				"/>
			</g>
			<g>
				<polygon fill="#FFFFFF" points="655.172,204.299 606.449,381.34 611.662,381.34 660.385,204.299 				"/>
				<polygon fill="#FFFFFF" points="664.84,204.299 616.115,381.34 619.328,381.34 668.053,204.299 				"/>
			</g>
			<polygon fill="#FFFFFF" points="474.943,301.705 422.961,375.65 421.773,368.711 469.65,301.709 466.646,301.709 
				421.178,365.221 410.32,301.705 404.947,301.705 419.484,381.971 423.592,381.971 480.947,301.705 			"/>
			<path fill="#FFFFFF" d="M249.479,299.809c-26.861,0-46.928,24.018-46.928,48.033c0,20.383,14.853,35.395,36.025,35.395
				c26.545,0,47.085-23.701,47.085-48.035C285.661,314.82,270.651,299.809,249.479,299.809z M249.162,304.549
				c18.487,0,30.97,12.799,30.97,31.127c0,3.354-0.434,6.686-1.244,9.926c-6.869,14.119-21.503,25.033-37.849,25.033
				c-18.645,0-32.116-12.105-32.116-30.434c0-0.771,0.193-2.051,0.44-3.418C214.056,319.391,229.79,304.549,249.162,304.549z
				 M239.05,378.496c-15.921,0-27.341-9.336-30.34-23.475c5.827,10.994,17.357,18.047,31.865,18.047
				c12.512,0,23.688-5.268,32.009-13.383C265.18,370.701,252.998,378.496,239.05,378.496z"/>
			<path fill="#FFFFFF" d="M380.302,301.705l-10.238,38.359h-0.002c-6.166,17.662-22.941,29.316-37.109,29.316
				c-15.152,0-22.576-8.672-22.593-21.449c0.214-1.033,0.46-2.066,0.735-3.092l11.535-43.135h-5.057l-11.533,42.977
				c-1.107,4.424-1.896,8.85-1.896,12.799c0,15.326,9.48,25.756,26.703,25.756c15.801,0,26.387-9.639,33.18-20.068l-4.896,18.172
				h5.055l21.332-79.635H380.302z M331.952,378.496c-13.763,0-21.13-7.168-22.381-18.055c4.178,7.281,12.092,11.68,23.275,11.68
				c14.706,0,27.404-10.643,33.547-19.85C359.767,368.553,345.485,378.496,331.952,378.496z"/>
			<path fill="#FFFFFF" d="M557.262,343.102c1.264-3.791,1.738-7.9,1.896-12.324c0-15.957-9.164-30.969-30.652-30.969
				c-25.439,0-46.139,24.648-46.139,50.246c0,19.908,14.062,33.182,35.236,33.182c11.533,0,22.277-4.268,31.6-12.168l-3.002-3.633
				c-8.848,7.268-18.486,11.061-28.598,11.061c-18.172,0-29.705-11.377-29.705-28.758c0-2.213,0.158-4.424,0.473-6.637H557.262z
				 M489.162,338.52c0.471-1.898,1.062-3.764,1.756-5.584h62.947c-0.148,2.084-0.473,3.924-0.711,5.584H489.162z M528.348,304.549
				c18.17,0,25.596,12.799,25.596,26.229c0,0.199-0.018,0.381-0.021,0.576h-62.373C497.922,316.201,511.766,304.549,528.348,304.549
				z"/>
			<path fill="#FFFFFF" d="M722.684,343.102c1.264-3.791,1.738-7.9,1.895-12.324c0-15.957-9.164-30.969-30.652-30.969
				c-25.439,0-46.137,24.648-46.137,50.246c0,19.908,14.062,33.182,35.234,33.182c11.535,0,22.279-4.268,31.602-12.168l-3.002-3.633
				c-8.85,7.268-18.486,11.061-28.6,11.061c-18.17,0-29.705-11.377-29.705-28.758c0-2.213,0.158-4.424,0.475-6.637H722.684z
				 M654.582,338.52c0.43-1.734,0.957-3.445,1.572-5.117h0.021c0.004-0.027,0.008-0.055,0.012-0.082
				c0.047-0.129,0.1-0.256,0.15-0.385h62.949c-0.148,2.084-0.475,3.924-0.713,5.584H654.582z M693.768,304.549
				c17.979,0,25.434,12.529,25.59,25.805H657.4C663.953,315.691,677.553,304.549,693.768,304.549z"/>
		</g>
	</g>
	<path fill="#FFFFFF" d="M427.266,69h-2.031c0.105,0.628,10.6,63.145,10.6,75.666c0,3.087-2.645,9.542-16.027,22.758
		C413.719,173.434,407,178.71,405,181.005v2.602c3-2.493,32.998-27.455,32.998-38.941C437.998,131.979,427.698,71.572,427.266,69z"
		/>
</g>
</svg>
