<?xml version="1.0" encoding="utf-8"?>
<!-- Generator: Adobe Illustrator 16.0.4, SVG Export Plug-In . SVG Version: 6.00 Build 0)  -->
<!DOCTYPE svg PUBLIC "-//W3C//DTD SVG 1.1//EN" "http://www.w3.org/Graphics/SVG/1.1/DTD/svg11.dtd">
<svg version="1.1" id="Layer_1" xmlns="http://www.w3.org/2000/svg" xmlns:xlink="http://www.w3.org/1999/xlink" x="0px" y="0px"
	 width="839.571px" height="305.714px" viewBox="0 0 839.571 305.714" enable-background="new 0 0 839.571 305.714"
	 xml:space="preserve">
<g>
	<path fill="#FFFFFF" d="M241.07,39.104h-5.214L196.733,183.17L143.585,81.131h-4.898L89.208,266.793h5.056l41.002-153.818
		L188.97,215.96h4.424L241.07,39.104z M189.629,209.306l-52.897-101.773l5.564-20.644l52.989,101.607L189.629,209.306z"/>
	<g>
		<polygon fill="#FFFFFF" points="644.461,38.92 595.738,215.96 600.951,215.96 649.674,38.92 		"/>
		<polygon fill="#FFFFFF" points="654.129,38.92 605.404,215.96 607.617,215.96 656.342,38.92 		"/>
	</g>
	<g>
		<polygon fill="#FFFFFF" points="680.957,38.92 632.234,215.96 637.447,215.96 686.17,38.92 		"/>
		<polygon fill="#FFFFFF" points="690.625,38.92 641.9,215.96 645.113,215.96 693.838,38.92 		"/>
	</g>
	<polygon fill="#FFFFFF" points="500.729,136.326 448.745,210.272 447.559,203.333 495.436,136.331 492.432,136.331 
		446.963,199.842 436.104,136.326 430.732,136.326 445.269,216.592 449.377,216.592 506.732,136.326 	"/>
	<path fill="#FFFFFF" d="M275.264,134.43c-26.86,0-46.927,24.017-46.927,48.033c0,20.383,14.852,35.394,36.024,35.394
		c26.545,0,47.086-23.701,47.086-48.034C311.447,149.441,296.437,134.43,275.264,134.43z M274.948,139.17
		c18.486,0,30.969,12.798,30.969,31.127c0,3.352-0.433,6.685-1.243,9.926c-6.87,14.117-21.504,25.031-37.849,25.031
		c-18.645,0-32.117-12.104-32.117-30.432c0-0.773,0.194-2.053,0.44-3.42C239.841,154.01,255.576,139.17,274.948,139.17z
		 M264.836,213.117c-15.921,0-27.341-9.337-30.34-23.476c5.827,10.995,17.357,18.049,31.865,18.049
		c12.512,0,23.687-5.268,32.008-13.383C290.966,205.321,278.784,213.117,264.836,213.117z"/>
	<path fill="#FFFFFF" d="M406.087,136.326l-10.237,38.358l-0.002,0.002c-6.166,17.661-22.941,29.315-37.109,29.315
		c-15.152,0-22.577-8.673-22.593-21.448c0.214-1.033,0.46-2.068,0.735-3.092l11.535-43.136h-5.057l-11.534,42.978
		c-1.106,4.424-1.896,8.849-1.896,12.799c0,15.326,9.48,25.755,26.703,25.755c15.801,0,26.387-9.639,33.181-20.067l-4.897,18.171
		h5.056l21.331-79.635H406.087z M357.738,213.117c-13.763,0-21.13-7.168-22.381-18.054c4.177,7.279,12.092,11.679,23.274,11.679
		c14.707,0,27.404-10.644,33.548-19.851C385.553,203.174,371.271,213.117,357.738,213.117z"/>
	<path fill="#FFFFFF" d="M583.047,177.723c1.264-3.792,1.738-7.9,1.896-12.324c0-15.958-9.164-30.969-30.652-30.969
		c-25.439,0-46.139,24.648-46.139,50.245c0,19.909,14.062,33.182,35.236,33.182c11.533,0,22.277-4.267,31.6-12.167l-3.002-3.634
		c-8.848,7.269-18.486,11.061-28.598,11.061c-18.172,0-29.705-11.377-29.705-28.757c0-2.213,0.158-4.425,0.473-6.637H583.047z
		 M514.947,173.141c0.471-1.898,1.062-3.764,1.755-5.586h62.947c-0.147,2.085-0.473,3.925-0.71,5.586H514.947z M554.133,139.17
		c18.17,0,25.596,12.798,25.596,26.229c0,0.199-0.018,0.379-0.021,0.574h-62.373C523.707,150.821,537.55,139.17,554.133,139.17z"/>
	<path fill="#FFFFFF" d="M748.469,177.723c1.264-3.792,1.738-7.9,1.895-12.324c0-15.958-9.164-30.969-30.652-30.969
		c-25.439,0-46.137,24.648-46.137,50.245c0,19.909,14.062,33.182,35.234,33.182c11.535,0,22.279-4.267,31.602-12.167l-3.002-3.634
		c-8.85,7.269-18.486,11.061-28.6,11.061c-18.17,0-29.705-11.377-29.705-28.757c0-2.213,0.158-4.425,0.475-6.637H748.469z
		 M680.367,173.141c0.43-1.736,0.956-3.445,1.572-5.117h0.021c0.004-0.027,0.008-0.055,0.011-0.082
		c0.048-0.129,0.101-0.258,0.15-0.387h62.949c-0.148,2.085-0.475,3.925-0.712,5.586H680.367z M719.553,139.17
		c17.979,0,25.434,12.529,25.59,25.803h-61.957C689.738,150.311,703.338,139.17,719.553,139.17z"/>
</g>
</svg>
